<svg width="44" height="31" viewBox="0 0 44 31" fill="none" xmlns="http://www.w3.org/2000/svg">
<path d="M16.8832 19.384C16.1376 18.4467 15.2535 17.765 14.2417 17.339C13.2298 16.9129 11.9411 16.4976 10.386 16.0928C9.04399 15.752 8.07474 15.4324 7.47828 15.1449C6.88183 14.8573 6.5836 14.4313 6.5836 13.8774C6.5836 13.3874 6.79662 13.004 7.22266 12.7377C7.6487 12.4715 8.15995 12.333 8.75641 12.333C9.43808 12.333 10.0026 12.5141 10.4393 12.8655C10.876 13.217 11.0996 13.7389 11.0996 14.4206H17.2772C17.2772 12.1413 16.5317 10.3519 15.0512 9.04182C13.5707 7.7424 11.4937 7.09268 8.83097 7.09268C6.1682 7.09268 4.0806 7.69979 2.5788 8.91401C1.07701 10.1282 0.32078 11.8324 0.32078 14.0372C0.32078 15.6135 0.672265 16.8597 1.39654 17.7757C2.11016 18.6917 2.96224 19.352 3.94214 19.7568C4.92203 20.1615 6.1682 20.5556 7.68065 20.939C9.04399 21.2586 10.0345 21.5675 10.6416 21.8657C11.2488 22.1639 11.5576 22.6326 11.5576 23.2716C11.5576 23.8468 11.3127 24.3048 10.8227 24.6456C10.3328 24.9864 9.7363 25.1569 9.03334 25.1569C8.28776 25.1569 7.65935 24.9545 7.15875 24.5497C6.65815 24.145 6.40253 23.5592 6.40253 22.7923H0.0332031C0.0332031 25.2208 0.842681 27.1273 2.46164 28.5013C4.0806 29.8753 6.27472 30.5676 9.05464 30.5676C11.8346 30.5676 13.9115 29.9179 15.5518 28.6291C17.192 27.3403 18.0122 25.5083 18.0122 23.1438C18.0122 21.5674 17.6394 20.3106 16.8938 19.3733L16.8832 19.384Z" fill="white"/>
<path d="M41.5511 13.036C40.5713 11.3424 39.2079 10.0217 37.4505 9.07377C37.312 8.99921 37.1842 8.92465 37.0564 8.86075L30.5486 13.3129H31.1877C32.8492 13.3129 34.1913 13.8241 35.2031 14.836C36.215 15.8478 36.7262 17.1792 36.7262 18.8195C36.7262 20.4597 36.215 21.8231 35.2031 22.8562C34.1913 23.8787 32.8492 24.39 31.1877 24.39H28.5995V14.6549L22.4219 18.8834V30.0457H31.4753C33.6907 30.0457 35.6824 29.5664 37.4398 28.6078C39.1973 27.6492 40.5713 26.3178 41.5511 24.6136C42.531 22.9095 43.021 20.9816 43.021 18.8195C43.021 16.6573 42.531 14.7401 41.5511 13.0466V13.036Z" fill="white"/>
<path d="M35.6822 7.54002L28.4289 7.57197L25.9791 0.92572L23.4335 7.59328L16.0098 7.61458L21.9744 11.875L19.8441 18.3295L35.6822 7.54002Z" fill="white"/>
</svg>
