<?xml version="1.0" encoding="UTF-8"?> <svg xmlns="http://www.w3.org/2000/svg" width="440" height="95" viewBox="0 0 440 95" fill="none"><path d="M44.2 48.4C42.24 45.94 39.93 44.15 37.28 43.03C34.62 41.91 31.25 40.82 27.17 39.76C23.65 38.86 21.1 38.04 19.54 37.29C17.97 36.54 17.19 35.43 17.19 33.98C17.19 32.7 17.75 31.7 18.87 31C19.99 30.3 21.33 29.95 22.9 29.95C24.69 29.95 26.16 30.41 27.3 31.33C28.44 32.25 29.02 33.61 29.02 35.4H45.21C45.21 29.42 43.27 24.72 39.38 21.31C35.49 17.9 30.06 16.19 23.07 16.19C16.08 16.19 10.62 17.78 6.67 20.97C2.73 24.16 0.76 28.63 0.76 34.39C0.76 38.53 1.69 41.8 3.57 44.2C5.44 46.61 7.66 48.34 10.24 49.4C12.81 50.46 16.08 51.5 20.05 52.5C23.63 53.34 26.21 54.15 27.81 54.93C29.4 55.71 30.2 56.94 30.2 58.62C30.2 60.13 29.56 61.33 28.27 62.23C26.98 63.13 25.42 63.57 23.57 63.57C21.61 63.57 19.98 63.04 18.66 61.98C17.34 60.92 16.69 59.38 16.69 57.37H0C0 63.74 2.12 68.73 6.37 72.34C10.62 75.95 16.38 77.75 23.65 77.75C30.92 77.75 36.37 76.06 40.67 72.68C44.97 69.3 47.13 64.5 47.13 58.3C47.13 54.16 46.15 50.86 44.19 48.4H44.2Z" fill="white"></path><path d="M75.2216 62.66C73.6016 62.66 72.3316 62.2 71.4016 61.28C70.4816 60.36 70.0116 59.08 70.0116 57.46V43.04H81.0016V31.05H69.5916V17.8H66.4016L46.1016 39.44V43.05H54.4016V60.16C54.4016 65.19 55.8316 69.15 58.6816 72.03C61.5316 74.91 65.4716 76.35 70.5016 76.35H81.2316V62.68H75.1916L75.2216 62.66Z" fill="white"></path><path d="M131.742 53.26C131.742 48.84 130.692 44.83 128.602 41.23C126.502 37.62 123.572 34.77 119.792 32.68C116.022 30.58 111.752 29.54 107.002 29.54C102.252 29.54 98.1719 30.59 94.4219 32.68C90.6819 34.78 87.7419 37.65 85.6119 41.32C83.4919 44.98 82.4219 49.1 82.4219 53.69C82.4219 58.28 83.4819 62.33 85.6119 66.02C87.7419 69.71 90.6719 72.6 94.4219 74.7C98.1719 76.8 102.362 77.84 107.002 77.84C112.702 77.84 117.692 76.33 121.972 73.31C126.252 70.29 129.172 66.18 130.732 60.98H115.222C114.442 62.32 113.332 63.37 111.912 64.12C110.482 64.87 108.852 65.25 107.002 65.25C104.542 65.25 102.512 64.58 100.922 63.24C99.3319 61.9 98.2819 59.94 97.7819 57.37H131.412C131.632 56.09 131.752 54.71 131.752 53.26H131.742ZM98.0319 48.73C98.6419 46.49 99.7219 44.77 101.262 43.57C102.802 42.37 104.712 41.77 107.002 41.77C109.292 41.77 111.322 42.36 112.912 43.53C114.502 44.7 115.662 46.44 116.392 48.73H98.0219H98.0319Z" fill="white"></path><path d="M135.699 14.69V76.33H151.299V14.69H135.699Z" fill="white"></path><path d="M157.68 14.69V76.33H173.28V14.69H157.68Z" fill="white"></path><path d="M216.48 30.96L214.89 34.48C210.92 31.24 206.31 29.62 201.05 29.62C196.46 29.62 192.37 30.64 188.76 32.68C185.15 34.72 182.33 37.57 180.29 41.23C178.25 44.89 177.23 49.01 177.23 53.6C177.23 58.19 178.25 62.41 180.29 66.1C182.33 69.79 185.17 72.67 188.8 74.74C192.43 76.81 196.52 77.84 201.04 77.84C206.18 77.84 210.74 76.25 214.71 73.06L216.05 76.25H228.04V30.96H216.47H216.48ZM210.36 61.07C208.46 63.03 206.05 64.01 203.15 64.01C200.25 64.01 197.82 63.03 195.9 61.07C193.97 59.11 193.01 56.65 193.01 53.69C193.01 50.73 193.96 48.27 195.86 46.31C197.76 44.35 200.19 43.37 203.16 43.37C206.13 43.37 208.47 44.35 210.37 46.31C212.27 48.27 213.22 50.73 213.22 53.69C213.22 56.65 212.27 59.11 210.37 61.07H210.36Z" fill="white"></path><path d="M302.861 31.75C300.291 27.31 296.711 23.84 292.131 21.35C291.771 21.16 291.421 20.96 291.091 20.79L274.031 32.47H275.691C280.051 32.47 283.561 33.8 286.211 36.45C288.871 39.11 290.191 42.59 290.191 46.89C290.191 51.19 288.861 54.77 286.211 57.46C283.561 60.14 280.051 61.49 275.691 61.49H268.901V35.98L252.711 47.06V76.33H276.441C282.261 76.33 287.471 75.07 292.081 72.56C296.691 70.04 300.291 66.55 302.861 62.08C305.431 57.61 306.721 52.55 306.721 46.9C306.721 41.25 305.441 36.21 302.861 31.76V31.75Z" fill="white"></path><path d="M326.901 12.17H311.551V25.34H326.901V12.17Z" fill="white"></path><path d="M327.069 31.04H311.469V76.33H327.069V31.04Z" fill="white"></path><path d="M369.832 31.04L367.902 34.81C365.942 33.13 363.752 31.85 361.322 30.95C358.892 30.05 356.302 29.61 353.562 29.61C349.312 29.61 345.472 30.6 342.032 32.59C338.592 34.58 335.882 37.3 333.902 40.77C331.922 44.24 330.922 48.09 330.922 52.34C330.922 56.59 331.912 60.54 333.902 64.04C335.892 67.54 338.602 70.26 342.032 72.22C345.472 74.18 349.312 75.16 353.562 75.16C357.812 75.16 361.862 74.01 365.382 71.72V73.06C365.382 75.69 364.492 77.8 362.702 79.39C360.912 80.98 358.672 81.78 355.992 81.78C353.982 81.78 352.152 81.37 350.502 80.56C348.852 79.75 347.772 78.62 347.272 77.16H332.172C333.232 82.53 335.892 86.73 340.142 89.78C344.392 92.83 349.732 94.35 356.162 94.35C361.082 94.35 365.372 93.41 369.032 91.54C372.692 89.66 375.502 87 377.462 83.53C379.422 80.06 380.402 75.98 380.402 71.29V31.04H369.832ZM363.082 59.51C361.272 61.38 358.962 62.32 356.162 62.32C353.362 62.32 351.062 61.38 349.242 59.51C347.432 57.64 346.512 55.25 346.512 52.34C346.512 49.43 347.422 47.14 349.242 45.3C351.062 43.46 353.362 42.53 356.162 42.53C358.962 42.53 361.262 43.45 363.082 45.3C364.902 47.14 365.812 49.49 365.812 52.34C365.812 55.19 364.902 57.64 363.082 59.51Z" fill="white"></path><path d="M402.319 12.17H386.969V25.34H402.319V12.17Z" fill="white"></path><path d="M402.479 31.04H386.879V76.33H402.479V31.04Z" fill="white"></path><path d="M433.01 62.66C431.39 62.66 430.12 62.2 429.19 61.28C428.27 60.36 427.81 59.08 427.81 57.46V43.04H438.8V31.05H427.39V17.8H424.2L403.91 39.44V43.05H412.21V60.16C412.21 65.19 413.64 69.15 416.49 72.03C419.34 74.91 423.28 76.35 428.31 76.35H439.04V62.68H433L433.01 62.66Z" fill="white"></path><path d="M287.482 17.34L268.462 17.42L262.042 0L255.382 17.47L235.922 17.55L251.542 28.69L245.962 45.62L287.482 17.34Z" fill="white"></path></svg> 